<svg width="16" height="16" viewBox="0 0 16 16" fill="none" xmlns="http://www.w3.org/2000/svg">
<circle cx="8" cy="8" r="8" fill="black"/>
<path d="M9.104 8.075L7.205 8.039C6.839 8.033 6.536 7.934 6.296 7.742C6.056 7.55 5.936 7.307 5.936 7.013C5.936 6.611 6.23 6.212 6.818 5.816C7.412 5.414 8.114 5.099 8.924 4.871C9.74 4.637 10.442 4.52 11.03 4.52C12.194 4.52 12.776 4.817 12.776 5.411C12.776 5.603 12.569 5.96 12.155 6.482C11.747 7.004 11.441 7.265 11.237 7.265C11.195 7.265 11.153 7.247 11.111 7.211C11.075 7.169 11.057 7.118 11.057 7.058C11.057 6.998 11.129 6.89 11.273 6.734C11.423 6.572 11.498 6.455 11.498 6.383C11.498 6.329 11.429 6.302 11.291 6.302C10.919 6.302 10.331 6.443 9.527 6.725C8.723 7.001 8.321 7.22 8.321 7.382C8.321 7.448 8.387 7.49 8.519 7.508C8.651 7.52 8.885 7.532 9.221 7.544C9.557 7.55 9.851 7.571 10.103 7.607C10.355 7.643 10.559 7.697 10.715 7.769C10.877 7.835 11 7.907 11.084 7.985C11.174 8.063 11.246 8.153 11.3 8.255C11.378 8.417 11.417 8.579 11.417 8.741C11.417 9.173 11.12 9.608 10.526 10.046C9.938 10.484 9.227 10.835 8.393 11.099C7.565 11.363 6.827 11.495 6.179 11.495C4.835 11.495 4.163 11.072 4.163 10.226C4.163 9.836 4.472 9.515 5.09 9.263C5.288 9.437 5.723 9.524 6.395 9.524C6.887 9.494 7.34 9.425 7.754 9.317C8.168 9.203 8.492 9.08 8.726 8.948C8.96 8.81 9.143 8.681 9.275 8.561C9.407 8.435 9.482 8.33 9.5 8.246C9.488 8.132 9.356 8.075 9.104 8.075Z" fill="white"/>
</svg>
